<svg width="102" height="20" viewBox="0 0 102 20" fill="none" xmlns="http://www.w3.org/2000/svg">
<path d="M9.15234 1.9375V19H5.64844V1.9375H9.15234ZM14.4023 1.9375V4.69141H0.480469V1.9375H14.4023ZM18.6483 1V19H15.2733V1H18.6483ZM18.1678 12.2148H17.242C17.2498 11.332 17.367 10.5195 17.5936 9.77734C17.8202 9.02734 18.1444 8.37891 18.5662 7.83203C18.9881 7.27734 19.492 6.84766 20.078 6.54297C20.6717 6.23828 21.328 6.08594 22.0467 6.08594C22.6717 6.08594 23.2381 6.17578 23.7459 6.35547C24.2616 6.52734 24.703 6.80859 25.0702 7.19922C25.4452 7.58203 25.7342 8.08594 25.9373 8.71094C26.1405 9.33594 26.242 10.0938 26.242 10.9844V19H22.8436V10.9609C22.8436 10.3984 22.7616 9.95703 22.5975 9.63672C22.4412 9.30859 22.2108 9.07812 21.9061 8.94531C21.6092 8.80469 21.242 8.73438 20.8045 8.73438C20.3202 8.73438 19.9061 8.82422 19.5623 9.00391C19.2264 9.18359 18.9569 9.43359 18.7537 9.75391C18.5506 10.0664 18.4022 10.4336 18.3084 10.8555C18.2147 11.2773 18.1678 11.7305 18.1678 12.2148ZM31.3434 9.08594V19H27.9684V6.32031H31.1442L31.3434 9.08594ZM35.1637 6.23828L35.1052 9.36719C34.9411 9.34375 34.7419 9.32422 34.5075 9.30859C34.2809 9.28516 34.0739 9.27344 33.8864 9.27344C33.4098 9.27344 32.9958 9.33594 32.6442 9.46094C32.3005 9.57812 32.0114 9.75391 31.777 9.98828C31.5505 10.2227 31.3786 10.5078 31.2614 10.8438C31.152 11.1797 31.0895 11.5625 31.0739 11.9922L30.3942 11.7812C30.3942 10.9609 30.4762 10.207 30.6403 9.51953C30.8044 8.82422 31.0427 8.21875 31.3552 7.70312C31.6755 7.1875 32.0661 6.78906 32.527 6.50781C32.988 6.22656 33.5153 6.08594 34.1091 6.08594C34.2966 6.08594 34.488 6.10156 34.6833 6.13281C34.8786 6.15625 35.0387 6.19141 35.1637 6.23828ZM39.48 6.32031V19H36.0933V6.32031H39.48ZM35.8823 3.01562C35.8823 2.52344 36.0542 2.11719 36.398 1.79688C36.7417 1.47656 37.2027 1.31641 37.7808 1.31641C38.3511 1.31641 38.8081 1.47656 39.1519 1.79688C39.5034 2.11719 39.6792 2.52344 39.6792 3.01562C39.6792 3.50781 39.5034 3.91406 39.1519 4.23438C38.8081 4.55469 38.3511 4.71484 37.7808 4.71484C37.2027 4.71484 36.7417 4.55469 36.398 4.23438C36.0542 3.91406 35.8823 3.50781 35.8823 3.01562ZM45.7416 16.5391L48.5541 6.32031H52.0814L47.8041 19H45.6712L45.7416 16.5391ZM43.808 6.32031L46.6322 16.5508L46.6908 19H44.5462L40.2689 6.32031H43.808ZM58.425 19.2344C57.4406 19.2344 56.5578 19.0781 55.7766 18.7656C54.9953 18.4453 54.3312 18.0039 53.7844 17.4414C53.2453 16.8789 52.8312 16.2266 52.5422 15.4844C52.2531 14.7344 52.1086 13.9375 52.1086 13.0938V12.625C52.1086 11.6641 52.2453 10.7852 52.5187 9.98828C52.7922 9.19141 53.1828 8.5 53.6906 7.91406C54.2062 7.32812 54.8312 6.87891 55.5656 6.56641C56.3 6.24609 57.1281 6.08594 58.05 6.08594C58.9484 6.08594 59.7453 6.23438 60.4406 6.53125C61.1359 6.82812 61.718 7.25 62.1867 7.79688C62.6633 8.34375 63.0227 9 63.2648 9.76562C63.507 10.5234 63.6281 11.3672 63.6281 12.2969V13.7031H53.55V11.4531H60.3117V11.1953C60.3117 10.7266 60.2258 10.3086 60.0539 9.94141C59.8898 9.56641 59.6398 9.26953 59.3039 9.05078C58.968 8.83203 58.5383 8.72266 58.0148 8.72266C57.5695 8.72266 57.1867 8.82031 56.8664 9.01562C56.5461 9.21094 56.2844 9.48438 56.0812 9.83594C55.8859 10.1875 55.7375 10.6016 55.6359 11.0781C55.5422 11.5469 55.4953 12.0625 55.4953 12.625V13.0938C55.4953 13.6016 55.5656 14.0703 55.7062 14.5C55.8547 14.9297 56.0617 15.3008 56.3273 15.6133C56.6008 15.9258 56.9289 16.168 57.3117 16.3398C57.7023 16.5117 58.1437 16.5977 58.6359 16.5977C59.2453 16.5977 59.8117 16.4805 60.3352 16.2461C60.8664 16.0039 61.3234 15.6406 61.7062 15.1562L63.3469 16.9375C63.0812 17.3203 62.718 17.6875 62.257 18.0391C61.8039 18.3906 61.257 18.6797 60.6164 18.9062C59.9758 19.125 59.2453 19.2344 58.425 19.2344ZM70.9209 6.32031V8.71094H63.5381V6.32031H70.9209ZM65.3662 3.19141H68.7412V15.1797C68.7412 15.5469 68.7881 15.8281 68.8819 16.0234C68.9834 16.2188 69.1319 16.3555 69.3272 16.4336C69.5225 16.5039 69.7686 16.5391 70.0655 16.5391C70.2764 16.5391 70.4639 16.5312 70.628 16.5156C70.7998 16.4922 70.9444 16.4688 71.0616 16.4453L71.0733 18.9297C70.7842 19.0234 70.4717 19.0977 70.1358 19.1523C69.7998 19.207 69.4287 19.2344 69.0225 19.2344C68.2803 19.2344 67.6319 19.1133 67.0772 18.8711C66.5303 18.6211 66.1084 18.2227 65.8116 17.6758C65.5147 17.1289 65.3662 16.4102 65.3662 15.5195V3.19141ZM78.8466 16.1406V10.4922C78.8466 10.0859 78.7802 9.73828 78.6473 9.44922C78.5145 9.15234 78.3075 8.92188 78.0263 8.75781C77.7528 8.59375 77.3973 8.51172 76.9598 8.51172C76.5848 8.51172 76.2606 8.57812 75.9872 8.71094C75.7138 8.83594 75.5028 9.01953 75.3544 9.26172C75.2059 9.49609 75.1317 9.77344 75.1317 10.0938H71.7567C71.7567 9.55469 71.8817 9.04297 72.1317 8.55859C72.3817 8.07422 72.745 7.64844 73.2216 7.28125C73.6981 6.90625 74.2645 6.61328 74.9208 6.40234C75.5848 6.19141 76.327 6.08594 77.1473 6.08594C78.1317 6.08594 79.0067 6.25 79.7723 6.57812C80.538 6.90625 81.1395 7.39844 81.577 8.05469C82.0223 8.71094 82.245 9.53125 82.245 10.5156V15.9414C82.245 16.6367 82.288 17.207 82.3739 17.6523C82.4598 18.0898 82.5848 18.4727 82.7489 18.8008V19H79.3388C79.1747 18.6562 79.0497 18.2266 78.9638 17.7109C78.8856 17.1875 78.8466 16.6641 78.8466 16.1406ZM79.2919 11.2773L79.3153 13.1875H77.4286C76.9833 13.1875 76.5966 13.2383 76.2684 13.3398C75.9403 13.4414 75.6708 13.5859 75.4598 13.7734C75.2489 13.9531 75.0927 14.1641 74.9911 14.4062C74.8973 14.6484 74.8505 14.9141 74.8505 15.2031C74.8505 15.4922 74.9169 15.7539 75.0497 15.9883C75.1825 16.2148 75.3739 16.3945 75.6239 16.5273C75.8739 16.6523 76.1669 16.7148 76.5028 16.7148C77.0106 16.7148 77.452 16.6133 77.827 16.4102C78.202 16.207 78.4911 15.957 78.6942 15.6602C78.9052 15.3633 79.0145 15.082 79.0223 14.8164L79.913 16.2461C79.788 16.5664 79.6161 16.8984 79.3973 17.2422C79.1864 17.5859 78.9169 17.9102 78.5888 18.2148C78.2606 18.5117 77.8661 18.7578 77.4052 18.9531C76.9442 19.1406 76.3973 19.2344 75.7645 19.2344C74.9598 19.2344 74.2294 19.0742 73.5731 18.7539C72.9247 18.4258 72.4091 17.9766 72.0263 17.4062C71.6513 16.8281 71.4638 16.1719 71.4638 15.4375C71.4638 14.7734 71.5888 14.1836 71.8388 13.668C72.0888 13.1523 72.4559 12.7188 72.9403 12.3672C73.4325 12.0078 74.0458 11.7383 74.7802 11.5586C75.5145 11.3711 76.3661 11.2773 77.3348 11.2773H79.2919ZM87.5691 1V19H84.1823V1H87.5691ZM92.8931 0.988281V19H89.5181V0.988281H92.8931ZM100.885 6.32031L95.3775 12.6016L92.4244 15.5898L91.1939 13.1523L93.5377 10.1758L96.8306 6.32031H100.885ZM97.3814 19L93.6314 13.1406L95.9634 11.1016L101.272 19H97.3814Z" fill="#62D0DF"/>
</svg>
